<svg width="150" height="150" viewBox="0 0 150 150" fill="none" xmlns="http://www.w3.org/2000/svg">
<g clip-path="url(#clip0_1_35)">
<path d="M75 0C33.6468 0 0 33.6468 0 75C0 116.353 33.6468 150 75 150C116.349 150 150 116.353 150 75C150 33.6468 116.357 0 75 0ZM11.9922 80.8442H28.4844C29.1156 88.8195 31.0403 96.5182 34.0597 103.734H18.6584C15.0818 96.7442 12.7442 89.0338 11.9922 80.8442ZM80.8442 34.5779V21.7481C86.3766 25.2974 91.3013 29.6221 95.4078 34.5779H80.8442ZM103.103 46.2662C106.718 53.3221 109.017 61.0714 109.761 69.1558H80.8442V46.2662H103.103ZM69.1558 34.5779H54.5883C58.7143 29.6221 63.6234 25.2974 69.1558 21.7481V34.5779ZM69.1558 46.2662V69.1558H40.239C40.9909 61.0714 43.2818 53.3221 46.8974 46.2662H69.1558ZM28.4883 69.1558H11.9922C12.7403 60.9701 15.0818 53.2558 18.6584 46.2662H34.0597C31.0442 53.4779 29.1195 61.1805 28.4883 69.1558ZM40.2468 80.8442H69.1636V103.734H46.9052C43.2857 96.6779 40.9948 88.9286 40.2468 80.8442ZM69.1558 115.422V128.252C63.6234 124.703 58.7065 120.378 54.5883 115.422H69.1558ZM80.8442 115.422H95.4078C91.2896 120.374 86.3766 124.703 80.8442 128.252V115.422ZM80.8442 103.734V80.8442H109.761C109.017 88.9286 106.718 96.6779 103.103 103.734H80.8442ZM121.512 80.8442H138.012C137.264 89.0338 134.914 96.7442 131.338 103.734H115.948C118.96 96.5182 120.884 88.8195 121.512 80.8442ZM121.512 69.1558C120.888 61.1805 118.964 53.4779 115.948 46.2662H131.338C134.914 53.2558 137.264 60.9701 138.012 69.1558H121.512ZM123.686 34.5779H109.866C104.556 26.2987 97.6013 19.0909 89.361 13.3948C103.009 16.5779 115.005 24.1403 123.686 34.5779ZM60.6351 13.3948C52.4143 19.0909 45.4558 26.3026 40.1416 34.5779H26.3182C35.0065 24.1403 46.987 16.5779 60.6351 13.3948ZM26.3221 115.422H40.1455C45.4519 123.701 52.4065 130.909 60.639 136.609C46.987 133.422 35.0065 125.864 26.3221 115.422ZM89.3688 136.605C97.5935 130.905 104.548 123.697 109.874 115.418H123.694C115.005 125.864 103.009 133.422 89.3688 136.605Z" fill="#B8477D"/>
</g>
<defs>
<clipPath id="clip0_1_35">
<rect width="150" height="150" fill="white"/>
</clipPath>
</defs>
</svg>
