<svg width="228" height="35" viewBox="0 0 228 35" fill="none" xmlns="http://www.w3.org/2000/svg">
<path d="M29.952 0.495999L18.624 22.336V34H11.904V22.336L0.528 0.495999H8.112L15.312 15.808L22.464 0.495999H29.952ZM49.3796 34.336C46.2436 34.336 43.3636 33.6 40.7396 32.128C38.1156 30.656 36.0356 28.624 34.4996 26.032C32.9636 23.408 32.1956 20.448 32.1956 17.152C32.1956 13.888 32.9636 10.96 34.4996 8.368C36.0356 5.744 38.1156 3.696 40.7396 2.224C43.3636 0.751999 46.2436 0.0159998 49.3796 0.0159998C52.5476 0.0159998 55.4276 0.751999 58.0196 2.224C60.6436 3.696 62.7076 5.744 64.2116 8.368C65.7476 10.96 66.5156 13.888 66.5156 17.152C66.5156 20.448 65.7476 23.408 64.2116 26.032C62.7076 28.624 60.6436 30.656 58.0196 32.128C55.3956 33.6 52.5156 34.336 49.3796 34.336ZM49.3796 28.336C51.3956 28.336 53.1716 27.888 54.7076 26.992C56.2436 26.064 57.4436 24.752 58.3076 23.056C59.1716 21.36 59.6036 19.392 59.6036 17.152C59.6036 14.912 59.1716 12.96 58.3076 11.296C57.4436 9.6 56.2436 8.304 54.7076 7.408C53.1716 6.512 51.3956 6.064 49.3796 6.064C47.3636 6.064 45.5716 6.512 44.0036 7.408C42.4676 8.304 41.2676 9.6 40.4036 11.296C39.5396 12.96 39.1076 14.912 39.1076 17.152C39.1076 19.392 39.5396 21.36 40.4036 23.056C41.2676 24.752 42.4676 26.064 44.0036 26.992C45.5716 27.888 47.3636 28.336 49.3796 28.336ZM94.8431 10.576C94.0751 9.168 93.0191 8.096 91.6751 7.36C90.3311 6.624 88.7631 6.256 86.9711 6.256C84.9871 6.256 83.2271 6.704 81.6911 7.6C80.1551 8.496 78.9551 9.776 78.0911 11.44C77.2271 13.104 76.7951 15.024 76.7951 17.2C76.7951 19.44 77.2271 21.392 78.0911 23.056C78.9871 24.72 80.2191 26 81.7871 26.896C83.3551 27.792 85.1791 28.24 87.2591 28.24C89.8191 28.24 91.9151 27.568 93.5471 26.224C95.1791 24.848 96.2511 22.944 96.7631 20.512H85.2431V15.376H103.387V21.232C102.939 23.568 101.979 25.728 100.507 27.712C99.0351 29.696 97.1311 31.296 94.7951 32.512C92.4911 33.696 89.8991 34.288 87.0191 34.288C83.7871 34.288 80.8591 33.568 78.2351 32.128C75.6431 30.656 73.5951 28.624 72.0911 26.032C70.6191 23.44 69.8831 20.496 69.8831 17.2C69.8831 13.904 70.6191 10.96 72.0911 8.368C73.5951 5.744 75.6431 3.712 78.2351 2.272C80.8591 0.799999 83.7711 0.0639992 86.9711 0.0639992C90.7471 0.0639992 94.0271 0.991999 96.8111 2.848C99.5951 4.672 101.515 7.248 102.571 10.576H94.8431ZM128.903 27.616H115.559L113.351 34H106.295L118.343 0.447997H126.167L138.215 34H131.111L128.903 27.616ZM127.079 22.24L122.231 8.224L117.383 22.24H127.079Z" fill="#4333D0"/>
<path d="M157.926 34L147.766 21.56V34H142.166V6.08H147.766V18.6L157.926 6.08H164.686L153.166 19.92L165.006 34H157.926ZM174.29 6.08V34H168.69V6.08H174.29ZM198.823 6.08V10.6H191.383V34H185.783V10.6H178.343V6.08H198.823ZM220.028 28.68H208.908L207.068 34H201.188L211.228 6.04H217.748L227.788 34H221.868L220.028 28.68ZM218.508 24.2L214.468 12.52L210.428 24.2H218.508Z" fill="#FFA451"/>
</svg>
