<svg width="219" height="154" viewBox="0 0 219 154" fill="none" xmlns="http://www.w3.org/2000/svg">
<path d="M15.863 111.95C3.37097 79.9743 30.3204 44.5133 67.653 50.9717C79.9518 53.0994 91.734 58.592 104.456 64.6442C105.034 64.9193 105.213 64.8041 105.463 64.2618C114.661 44.3281 127.57 14.3394 160.198 12.3035C173.929 11.4466 185.474 16.3557 194.301 26.8719C223.844 62.068 193.688 111.086 149.24 102.046C138.029 99.7657 127.292 94.8973 114.466 88.7733C113.782 88.4463 113.583 88.6004 113.294 89.2271C106.565 103.817 99.3627 119.634 87.004 129.657C61.8546 150.052 28.0435 142.949 15.863 111.95ZM33.6336 104.774C41.3311 123.07 58.8221 126.539 72.8884 117.679C85.0448 110.023 91.8901 94.3887 97.7905 81.2657C97.9893 80.8235 97.763 80.7558 97.4705 80.6315C86.4999 75.9684 75.1049 69.5425 63.2779 68.406C40.3554 66.2033 26.9282 86.5561 33.6336 104.774ZM185.226 48.7074C178.093 30.9148 160.318 26.2734 145.348 36.0698C133.57 43.7776 126.769 59.333 121.045 72.0546C120.847 72.4959 121.024 72.6038 121.372 72.7517C136.686 79.259 156.306 91.1925 173.415 81.4891C184.811 75.0257 189.815 61.2294 185.226 48.7074Z" fill="#B8477D"/>
</svg>
